<svg width="102" height="22" viewBox="0 0 102 22" fill="none" xmlns="http://www.w3.org/2000/svg">
<mask id="mask0_1586_859" style="mask-type:alpha" maskUnits="userSpaceOnUse" x="0" y="0" width="12" height="22">
<path d="M1.875 0.00688454C7.50031 0.213749 12 5.05637 12 11C12 16.9436 7.50031 21.7863 1.875 21.9931V22H0V0H1.875V0.00688454Z" fill="#D9D9D9"/>
</mask>
<g mask="url(#mask0_1586_859)">
<path d="M7.87194 -0.290212C6.59395 -2.56339 3.93654 -3.36494 1.93644 -2.08053C-0.0636589 -0.796109 -0.649045 2.0879 0.628942 4.36108L9.98254 20.9985C11.2605 23.2717 13.9179 24.0732 15.918 22.7888C17.9181 21.5044 18.5035 18.6204 17.2255 16.3472L7.87194 -0.290212Z" fill="#99E2FF"/>
<path d="M3.148 0.834062C2.0403 -1.13623 -0.352153 -1.77376 -2.19568 -0.589882C-4.03921 0.593991 -4.63572 3.15095 -3.52801 5.12125L4.57929 19.5419C5.68699 21.5122 8.07944 22.1497 9.92297 20.9658C11.7665 19.7819 12.363 17.225 11.2553 15.2547L3.148 0.834062Z" fill="#2CC3FF"/>
<path d="M-1.352 5.20809C-2.4597 3.23779 -4.85215 2.60027 -6.69568 3.78414C-8.53921 4.96802 -9.13572 7.52498 -8.02801 9.49527L0.0792846 23.9159C1.18699 25.8862 3.57944 26.5237 5.42297 25.3398C7.2665 24.156 7.863 21.599 6.7553 19.6287L-1.352 5.20809Z" fill="#3893F7"/>
</g>
<mask id="mask1_1586_859" style="mask-type:alpha" maskUnits="userSpaceOnUse" x="14" y="0" width="12" height="22">
<path d="M24.125 0.00688454C18.4997 0.213749 14 5.05637 14 11C14 16.9436 18.4997 21.7863 24.125 21.9931V22H26V0H24.125V0.00688454Z" fill="#D9D9D9"/>
</mask>
<g mask="url(#mask1_1586_859)">
<path d="M17.0593 0.260249C18.2814 -1.91339 21.0183 -2.55407 23.1724 -1.17074C25.3265 0.212579 26.0821 3.09607 24.8601 5.26971L15.9161 21.1786C14.6941 23.3522 11.9571 23.9929 9.80303 22.6096C7.64892 21.2263 6.89331 18.3428 8.11534 16.1691L17.0593 0.260249Z" fill="#99E2FF"/>
<path d="M22.852 0.834062C23.9597 -1.13623 26.3522 -1.77376 28.1957 -0.589882C30.0392 0.593991 30.6357 3.15095 29.528 5.12125L21.4207 19.5419C20.313 21.5122 17.9206 22.1497 16.077 20.9658C14.2335 19.7819 13.637 17.225 14.7447 15.2547L22.852 0.834062Z" fill="#2CC3FF"/>
<path d="M27.352 5.20809C28.4597 3.23779 30.8522 2.60027 32.6957 3.78414C34.5392 4.96802 35.1357 7.52498 34.028 9.49527L25.9207 23.9159C24.813 25.8862 22.4206 26.5237 20.577 25.3398C18.7335 24.156 18.137 21.599 19.2447 19.6287L27.352 5.20809Z" fill="#3893F7"/>
</g>
<path fill-rule="evenodd" clip-rule="evenodd" d="M32 17.7603V4H37.4257C41.3861 4 44 6.63623 44 10.7104C44 14.7247 41.4653 17.7603 37.2871 17.7603H32ZM34.9505 6.39658V15.3638H37.1683C39.7822 15.3638 40.9505 13.3866 40.9505 10.7104C40.9505 8.45364 39.8614 6.39658 37.1881 6.39658H34.9505ZM55.1287 13.2068H48.3564C48.3564 14.505 49.0099 15.7632 50.4158 15.7632C51.604 15.7632 51.9406 15.2839 52.2178 14.6648H55.0495C54.6931 15.923 53.5644 18 50.3564 18C46.9703 18 45.505 15.4636 45.505 12.7475C45.505 9.49215 47.1485 7.17546 50.4554 7.17546C53.9604 7.17546 55.1683 9.75178 55.1683 12.3281C55.1683 12.6876 55.1683 12.9073 55.1287 13.2068ZM48.4158 11.4494H52.3168C52.297 10.2511 51.8218 9.23252 50.4356 9.23252C49.0891 9.23252 48.5347 10.1712 48.4158 11.4494ZM56.0396 7.41512H59.1089C60.0792 10.9301 60.8911 13.9857 61.0891 15.224H61.1089C61.4059 13.5264 62.396 10.4108 63.2871 7.41512H66.1188L62.495 17.7603H59.5248L56.0396 7.41512ZM67.8614 17.7603V4H73.2871C77.2475 4 79.8614 6.63623 79.8614 10.7104C79.8614 14.7247 77.3267 17.7603 73.1485 17.7603H67.8614ZM70.8119 6.39658V15.3638H73.0297C75.6436 15.3638 76.8119 13.3866 76.8119 10.7104C76.8119 8.45364 75.7228 6.39658 73.0495 6.39658H70.8119ZM90.9901 13.2068H84.2178C84.2178 14.505 84.8713 15.7632 86.2772 15.7632C87.4653 15.7632 87.802 15.2839 88.0792 14.6648H90.9109C90.5545 15.923 89.4257 18 86.2178 18C82.8317 18 81.3663 15.4636 81.3663 12.7475C81.3663 9.49215 83.0099 7.17546 86.3168 7.17546C89.8218 7.17546 91.0297 9.75178 91.0297 12.3281C91.0297 12.6876 91.0297 12.9073 90.9901 13.2068ZM84.2772 11.4494H88.1782C88.1584 10.2511 87.6832 9.23252 86.297 9.23252C84.9505 9.23252 84.396 10.1712 84.2772 11.4494ZM99.2277 14.4251H102C101.663 16.1427 100.455 18 97.4059 18C94.2178 18 92.5743 15.7832 92.5743 12.6676C92.5743 9.61198 94.4158 7.17546 97.5445 7.17546C100.99 7.17546 101.96 9.69187 102 10.8502H99.2475C99.0693 10.0114 98.5941 9.43224 97.4851 9.43224C96.1782 9.43224 95.4455 10.5706 95.4455 12.5678C95.4455 14.7846 96.2376 15.7832 97.4653 15.7832C98.4554 15.7832 98.9703 15.204 99.2277 14.4251Z" fill="white"/>
</svg>
