<svg width="18" height="22" viewBox="0 0 18 22" fill="none" xmlns="http://www.w3.org/2000/svg">
<path d="M6.69731 4.57719L7.29956 6.24969C7.96856 8.10594 9.43031 9.56769 11.2866 10.2367L12.9591 10.8389C13.1098 10.8937 13.1098 11.1074 12.9591 11.1614L11.2866 11.7637C9.43031 12.4327 7.96856 13.8944 7.29956 15.7507L6.69731 17.4232C6.64256 17.5739 6.42881 17.5739 6.37481 17.4232L5.77256 15.7507C5.10356 13.8944 3.64181 12.4327 1.78556 11.7637L0.113063 11.1614C-0.0376875 11.1067 -0.0376875 10.8929 0.113063 10.8389L1.78556 10.2367C3.64181 9.56769 5.10356 8.10594 5.77256 6.24969L6.37481 4.57719C6.42881 4.42569 6.64256 4.42569 6.69731 4.57719Z" fill="#425BD8"/>
<path d="M14.2259 0.557938L14.5311 1.40469C14.8701 2.34444 15.6104 3.08469 16.5501 3.42369L17.3969 3.72894C17.4734 3.75669 17.4734 3.86469 17.3969 3.89244L16.5501 4.19769C15.6104 4.53669 14.8701 5.27694 14.5311 6.21669L14.2259 7.06344C14.1981 7.13994 14.0901 7.13994 14.0624 7.06344L13.7571 6.21669C13.4181 5.27694 12.6779 4.53669 11.7381 4.19769L10.8914 3.89244C10.8149 3.86469 10.8149 3.75669 10.8914 3.72894L11.7381 3.42369C12.6779 3.08469 13.4181 2.34444 13.7571 1.40469L14.0624 0.557938C14.0901 0.480688 14.1989 0.480688 14.2259 0.557938Z" fill="#EF5858"/>
<path d="M14.2259 14.9377L14.5311 15.7844C14.8701 16.7242 15.6104 17.4644 16.5501 17.8034L17.3969 18.1087C17.4734 18.1364 17.4734 18.2444 17.3969 18.2722L16.5501 18.5774C15.6104 18.9164 14.8701 19.6567 14.5311 20.5964L14.2259 21.4432C14.1981 21.5197 14.0901 21.5197 14.0624 21.4432L13.7571 20.5964C13.4181 19.6567 12.6779 18.9164 11.7381 18.5774L10.8914 18.2722C10.8149 18.2444 10.8149 18.1364 10.8914 18.1087L11.7381 17.8034C12.6779 17.4644 13.4181 16.7242 13.7571 15.7844L14.0624 14.9377C14.0901 14.8612 14.1989 14.8612 14.2259 14.9377Z" fill="#E8790A"/>
</svg>
