<svg width="14" height="16" viewBox="0 0 14 16" fill="none" xmlns="http://www.w3.org/2000/svg">
<path d="M10.261 3.81152C11.3307 3.81152 12.4644 4.3979 13.2708 5.40918C10.6271 6.86677 11.0548 10.6646 13.7259 11.6807C13.3586 12.4993 13.1824 12.8657 12.7093 13.5908C12.0493 14.6029 11.1183 15.8627 9.96415 15.8721C8.93964 15.8832 8.67524 15.2007 7.28447 15.209C5.89374 15.2164 5.60348 15.885 4.57744 15.875C3.4242 15.8648 2.54211 14.7279 1.88212 13.7158C0.0355304 10.8876 -0.158922 7.56681 0.97978 5.80078C1.78986 4.54707 3.06759 3.81348 4.26787 3.81348C5.48932 3.81354 6.2582 4.48828 7.26982 4.48828C8.25089 4.48816 8.84833 3.81161 10.261 3.81152ZM9.95244 0.125C10.0933 1.08158 9.70336 2.01858 9.18974 2.68164C8.64025 3.39279 7.69335 3.94263 6.77568 3.91406C6.60834 2.99834 7.03705 2.05517 7.55888 1.4209C8.13145 0.720783 9.11291 0.183343 9.95244 0.125Z" fill="white"/>
</svg>
