<svg width="32" height="32" viewBox="0 0 32 32" fill="none" xmlns="http://www.w3.org/2000/svg">
<path d="M21.7989 8.55469C23.7005 8.55469 25.7149 9.59673 27.1485 11.3945C22.4487 13.986 23.21 20.7379 27.9591 22.5439C27.3061 23.9992 26.9916 24.6494 26.1505 25.9385C24.9771 27.7379 23.3227 29.9785 21.2706 29.9951C19.4492 30.0149 18.9793 28.8017 16.5069 28.8164C14.0341 28.8296 13.5181 30.0181 11.6934 30C9.643 29.9818 8.07478 27.9605 6.90144 26.1611C3.61863 21.1332 3.27361 15.2304 5.29793 12.0908C6.73804 9.86167 9.00964 8.55764 11.1436 8.55762C13.3153 8.55762 14.682 9.75586 16.4805 9.75586C18.2249 9.75577 19.287 8.55471 21.7989 8.55469ZM21.2491 2C21.4995 3.70069 20.8078 5.3671 19.8946 6.5459C18.9176 7.81029 17.2332 8.78834 15.6016 8.7373C15.3038 7.10922 16.0664 5.43147 16.9942 4.30371C18.0121 3.05912 19.7566 2.1038 21.2491 2Z" fill="#131314"/>
</svg>
