<svg width="32" height="32" viewBox="0 0 32 32" fill="none" xmlns="http://www.w3.org/2000/svg">
<path d="M4 6.75H28C28.0663 6.75 28.1299 6.77636 28.1768 6.82324C28.2236 6.87013 28.25 6.93369 28.25 7V24C28.25 24.3315 28.1182 24.6494 27.8838 24.8838C27.6494 25.1182 27.3315 25.25 27 25.25H5C4.66848 25.25 4.35063 25.1182 4.11621 24.8838C3.88179 24.6494 3.75 24.3315 3.75 24V7L3.75488 6.95117C3.76447 6.90306 3.78804 6.85844 3.82324 6.82324C3.87013 6.77636 3.9337 6.75 4 6.75ZM17.6631 16.8047L16.1641 18.1846C16.118 18.2269 16.0577 18.2509 15.9951 18.251C15.9482 18.251 15.9026 18.2373 15.8633 18.2129L15.8262 18.1846L14.3271 16.8047L13.8203 16.3379L13.3115 16.8037L6.06445 23.4473L4.64355 24.75H27.3496L25.9277 23.4473L18.6777 16.8037L18.1699 16.3379L17.6631 16.8047ZM26.4932 8.71973L19.1543 15.4473L18.5518 16L19.1543 16.5527L26.4932 23.2803L27.75 24.4326V7.56738L26.4932 8.71973ZM4.25 24.4307L5.50684 23.2793L12.8457 16.5527L13.4492 16L12.8457 15.4473L5.50684 8.7207L4.25 7.56934V24.4307ZM6.06445 8.55273L15.4932 17.1963L16 17.6611L16.5068 17.1963L25.9355 8.55273L27.3564 7.25H4.64355L6.06445 8.55273Z" fill="#8D94AB" stroke="#8D94AB" stroke-width="1.5"/>
</svg>
