<svg width="32" height="32" viewBox="0 0 32 32" fill="none" xmlns="http://www.w3.org/2000/svg">
<path d="M6.00488 4.74113C6.03787 4.7429 6.07082 4.7512 6.10059 4.76554C6.1155 4.77273 6.12944 4.78197 6.14258 4.79191L6.17871 4.82511L6.18457 4.83195L26.1836 26.8319L26.1895 26.8388C26.2119 26.8629 26.2297 26.8909 26.2412 26.9218C26.2527 26.9528 26.2582 26.9864 26.2568 27.0194C26.2554 27.0525 26.2474 27.0852 26.2334 27.1152C26.2194 27.145 26.1992 27.1721 26.1748 27.1943C26.1504 27.2163 26.1218 27.233 26.0908 27.2441C26.0597 27.2552 26.0262 27.2605 25.9932 27.2587C25.9603 27.2569 25.9281 27.2485 25.8984 27.2343C25.8686 27.2199 25.8413 27.1995 25.8193 27.1747H25.8203L25.8135 27.1679L23.0635 24.1415L22.7002 23.7421L22.2061 23.9599C20.375 24.7684 18.4028 25.2056 16.4043 25.247L16.0039 25.2499H16C11.9728 25.2499 8.30753 23.7712 5.35645 20.954L5.07227 20.6767C3.37469 18.979 2.38055 17.2855 1.97949 16.5224L1.77148 16.1034V16.1025L1.75586 16.0536C1.75217 16.0364 1.75 16.0186 1.75 16.0009C1.75002 15.9834 1.75223 15.9661 1.75586 15.9491L1.77148 15.8993L1.77246 15.8984C1.83816 15.7499 3.71287 11.6243 8.05762 8.95792L8.8291 8.48429L8.21973 7.81437L5.81543 5.16788L5.80859 5.16105L5.7793 5.12199C5.77074 5.10808 5.76352 5.09342 5.75781 5.07804C5.74635 5.04701 5.74081 5.01344 5.74219 4.98038C5.7436 4.94755 5.75174 4.91545 5.76562 4.88566C5.77964 4.85569 5.79974 4.82881 5.82422 4.80656C5.8487 4.78431 5.87704 4.76687 5.9082 4.75578C5.9392 4.74475 5.97203 4.73942 6.00488 4.74113ZM8.66895 9.17765C5.03202 11.2778 3.07755 14.4954 2.46289 15.6474L2.27246 16.0038L2.4668 16.3583C3.17112 17.6512 4.03617 18.849 5.04102 19.9228L5.48047 20.3759V20.3769C8.39954 23.2697 11.9484 24.748 15.9961 24.7489V24.7499L15.998 24.7489L16 24.7499V24.7489C17.8323 24.7586 19.6506 24.4277 21.3613 23.7714L22.3857 23.3788L21.6475 22.5663L19.8057 20.5419L19.3809 20.0741L18.8477 20.414C17.8037 21.0804 16.5577 21.3567 15.3301 21.1933C14.1025 21.0299 12.9719 20.4376 12.1387 19.5214C11.3054 18.6051 10.8228 17.4231 10.7764 16.1855C10.73 14.948 11.1226 13.7338 11.8848 12.7577L12.2744 12.2587L11.8477 11.7909L9.59766 9.32218L9.19141 8.87589L8.66895 9.17765ZM15.999 6.74992H16C20.1572 6.74992 23.9284 8.32591 26.9268 11.3241C28.6249 13.0223 29.6195 14.717 30.0205 15.4804L30.2275 15.8984L30.2285 15.8993C30.2427 15.9312 30.25 15.966 30.25 16.0009L30.2441 16.0536C30.2425 16.0611 30.2386 16.0678 30.2363 16.0751L30.2256 16.1015C30.1952 16.1695 29.126 18.543 26.7354 20.8612L26.2393 21.3241L26.2305 21.3319C26.2062 21.3543 26.1775 21.3714 26.1465 21.3827C26.1155 21.394 26.0827 21.3989 26.0498 21.3974C26.0168 21.3958 25.984 21.3881 25.9541 21.3739C25.9242 21.3597 25.8971 21.3391 25.875 21.3144C25.8531 21.2898 25.836 21.2614 25.8252 21.2304C25.8144 21.1992 25.8095 21.1657 25.8115 21.1327C25.8136 21.0996 25.8222 21.0667 25.8369 21.037C25.8443 21.0222 25.8532 21.0081 25.8633 20.995L25.8975 20.9589L25.9072 20.9501C27.3692 19.6366 28.5972 18.0843 29.5391 16.3593L29.7354 15.9999L29.54 15.6405C28.8342 14.3465 27.9669 13.1483 26.96 12.0741L26.5195 11.621H26.5186C23.5986 8.72998 20.0492 7.24992 16 7.24992C15.3613 7.24917 14.7234 7.28747 14.0898 7.36515L13.458 7.45597L13.4492 7.45792C13.4169 7.46362 13.3836 7.46309 13.3516 7.45597C13.3194 7.44878 13.2887 7.43492 13.2617 7.41593C13.2348 7.39692 13.2119 7.37253 13.1943 7.34464C13.1768 7.31669 13.1646 7.2854 13.1592 7.25285C13.1538 7.22045 13.1547 7.1872 13.1621 7.15519C13.1696 7.12303 13.1838 7.09214 13.2031 7.06535C13.2223 7.03874 13.2465 7.01619 13.2744 6.99894C13.2885 6.99029 13.3039 6.98315 13.3193 6.97746L13.3672 6.96476L13.3721 6.96378C14.0234 6.85624 14.6806 6.78895 15.3398 6.76261L15.999 6.74992ZM12.0283 13.3964C11.4519 14.2768 11.1847 15.3239 11.2676 16.373C11.3506 17.4221 11.7795 18.4144 12.4873 19.1933C13.1952 19.9722 14.1422 20.494 15.1787 20.6767C16.2151 20.8592 17.2825 20.692 18.2139 20.2021L19.0713 19.7509L18.4199 19.0341L13.2109 13.3027L12.5596 12.5859L12.0283 13.3964ZM16.9824 10.8417V10.8427C18.0981 11.059 19.1144 11.6298 19.8789 12.4706C20.5956 13.2588 21.0552 14.2447 21.2002 15.2968L21.2246 15.5087C21.23 15.5738 21.2097 15.639 21.168 15.6894C21.1281 15.7373 21.0713 15.7668 21.0098 15.7753H20.9717C20.9092 15.7756 20.849 15.7518 20.8027 15.7099C20.7681 15.6784 20.7432 15.6381 20.7305 15.5937L20.7217 15.5478V15.5448L20.6992 15.3534C20.5675 14.4046 20.1514 13.5155 19.5049 12.8046C18.8584 12.0939 18.013 11.5968 17.0811 11.3759L16.8936 11.3349H16.8906C16.8254 11.3224 16.7678 11.2843 16.7305 11.2294C16.6932 11.1745 16.679 11.1071 16.6914 11.0419C16.7038 10.9767 16.742 10.9191 16.7969 10.8818C16.8512 10.8449 16.9179 10.83 16.9824 10.8417Z" fill="#8D94AB" stroke="#8D94AB" stroke-width="1.5"/>
</svg>
