<svg width="60" height="66" viewBox="0 0 60 66" fill="none" xmlns="http://www.w3.org/2000/svg">
<path fill-rule="evenodd" clip-rule="evenodd" d="M55.8242 60.9594C53.2602 60.4067 46.9708 58.3293 37.8826 58.0736C36.5006 58.0408 35.9662 57.7353 36.3236 57.1946C36.9706 56.262 38.7409 56.0998 43.875 56.5901C48.762 57.0388 46.5327 56.8281 41.8343 54.1726C17.8541 40.6474 20.4041 34.6668 18.5944 31.8825L16.9039 30.8912C8.25568 25.7865 -2.33851 8.6293 0.811548 4.83344C1.87439 3.5603 2.32247 4.03653 3.91668 8.27197C6.9865 16.3222 11.7943 23.3934 17.0348 27.5828C18.3226 28.6063 18.2441 28.6331 18.5697 26.8249C19.8799 19.223 35.4057 17.7548 39.6479 24.8509C43.3655 31.0671 34.5956 36.8901 25.1725 34.4694C22.8264 33.8584 22.9402 33.7673 23.9214 35.6757C29.1986 45.9663 44.2286 52.1374 49.5069 55.1561C51.3236 56.1987 51.322 56.1783 49.0987 53.3042C45.0671 48.1168 44.7216 47.4276 45.7399 46.793C47.2162 45.835 48.25 46.5101 51.0381 50.2608C54.4004 54.7644 56.0516 56.6806 58.2008 58.4955C61.5115 61.2826 58.5951 61.5569 55.8242 60.9594ZM35.142 32.0941C38.4265 29.3527 36.939 24.4942 32.3003 22.7352C26.194 20.4382 21.6958 23.2154 22.1738 29.0355C22.3548 31.2947 24.5419 31.7136 24.7779 31.8586C28.8383 33.5 33.3504 33.61 35.142 32.0941Z" fill="#425BD8"/>
</svg>
