<svg width="32" height="32" viewBox="0 0 32 32" fill="none" xmlns="http://www.w3.org/2000/svg">
<path d="M26.22 14.0806L21.8847 11.5766L17.4463 16.015L21.8844 20.4531L26.2348 17.9408C26.9132 17.5286 27.318 16.8086 27.318 16.015C27.318 15.2214 26.9128 14.5014 26.22 14.0806V14.0806Z" fill="#FBBC04"/>
<path d="M17.4468 16.015L5.35748 3.83872C4.937 4.2592 4.68164 4.82976 4.68164 5.46048V26.5325C4.68164 27.1632 4.937 27.7338 5.35748 28.1546L17.4468 16.015Z" fill="#4285F4"/>
<path d="M17.4467 16.015L21.8851 11.5766L21.8921 11.5696L15.9453 8.1456L8.1059 3.53824C7.39998 3.10272 6.54398 3.08768 5.82302 3.49312C5.6579 3.59808 5.5075 3.70336 5.35742 3.8384L17.4467 16.015Z" fill="#34A853"/>
<path d="M5.35742 28.1542C5.5075 28.2893 5.6579 28.3946 5.82302 28.4995C6.18334 28.6947 6.55902 28.8 6.93438 28.8C7.33982 28.8 7.73022 28.68 8.09086 28.4698L15.9449 23.8845L21.8918 20.4605L21.8848 20.4534L17.4467 16.015L5.35742 28.1542Z" fill="#EA4335"/>
</svg>
