<svg width="32" height="32" viewBox="0 0 32 32" fill="none" xmlns="http://www.w3.org/2000/svg">
<path d="M16 1.75C17.3924 1.75 18.7273 2.30352 19.7119 3.28809C20.6965 4.27265 21.25 5.60761 21.25 7V10.75H26C26.3315 10.75 26.6494 10.8818 26.8838 11.1162C27.1182 11.3506 27.25 11.6685 27.25 12V26C27.25 26.3315 27.1182 26.6494 26.8838 26.8838C26.6494 27.1182 26.3315 27.25 26 27.25H6C5.66848 27.25 5.35063 27.1182 5.11621 26.8838C4.88179 26.6494 4.75 26.3315 4.75 26V12L4.75586 11.876C4.78436 11.59 4.9112 11.3212 5.11621 11.1162C5.35063 10.8818 5.66848 10.75 6 10.75H10.75V7C10.75 5.60761 11.3035 4.27265 12.2881 3.28809C13.2727 2.30352 14.6076 1.75 16 1.75ZM5.25 26.75H26.75V11.25H5.25V26.75ZM16 18.25C16.1989 18.25 16.3896 18.3291 16.5303 18.4697C16.6709 18.6104 16.75 18.8011 16.75 19C16.75 19.1483 16.7064 19.2937 16.624 19.417C16.5416 19.5403 16.4241 19.6366 16.2871 19.6934C16.1501 19.7501 15.999 19.7643 15.8535 19.7354C15.7081 19.7064 15.5746 19.6351 15.4697 19.5303C15.3649 19.4254 15.2936 19.2919 15.2646 19.1465C15.2357 19.001 15.2499 18.8499 15.3066 18.7129C15.3634 18.5759 15.4597 18.4584 15.583 18.376C15.7063 18.2936 15.8517 18.25 16 18.25ZM16 2.25C14.7402 2.25 13.5324 2.7508 12.6416 3.6416C11.7508 4.5324 11.25 5.74022 11.25 7V10.75H20.75V7L20.7441 6.76465C20.6859 5.59056 20.1936 4.47677 19.3584 3.6416C18.4676 2.7508 17.2598 2.25 16 2.25Z" fill="#8D94AB" stroke="#8D94AB" stroke-width="1.5"/>
</svg>
