<svg width="32" height="32" viewBox="0 0 32 32" fill="none" xmlns="http://www.w3.org/2000/svg">
<path d="M29.4166 14.59L17.4104 2.5825C17.0356 2.21 16.5287 2.00091 16.0004 2.00091C15.472 2.00091 14.9651 2.21 14.5904 2.5825L2.59037 14.59C2.21787 14.9647 2.00879 15.4716 2.00879 16C2.00879 16.5284 2.21787 17.0353 2.59037 17.41L14.5966 29.4175C14.9713 29.79 15.4783 29.9991 16.0066 29.9991C16.535 29.9991 17.0419 29.79 17.4166 29.4175L29.4229 17.41C29.7954 17.0353 30.0045 16.5284 30.0045 16C30.0045 15.4716 29.7954 14.9647 29.4229 14.59H29.4166ZM15.0004 10C15.0004 9.73478 15.1057 9.48043 15.2933 9.29289C15.4808 9.10536 15.7352 9 16.0004 9C16.2656 9 16.5199 9.10536 16.7075 9.29289C16.895 9.48043 17.0004 9.73478 17.0004 10V17C17.0004 17.2652 16.895 17.5196 16.7075 17.7071C16.5199 17.8946 16.2656 18 16.0004 18C15.7352 18 15.4808 17.8946 15.2933 17.7071C15.1057 17.5196 15.0004 17.2652 15.0004 17V10ZM16.0004 23C15.7037 23 15.4137 22.912 15.167 22.7472C14.9203 22.5824 14.7281 22.3481 14.6146 22.074C14.501 21.7999 14.4713 21.4983 14.5292 21.2074C14.5871 20.9164 14.7299 20.6491 14.9397 20.4393C15.1495 20.2296 15.4168 20.0867 15.7077 20.0288C15.9987 19.9709 16.3003 20.0006 16.5744 20.1142C16.8485 20.2277 17.0828 20.42 17.2476 20.6666C17.4124 20.9133 17.5004 21.2033 17.5004 21.5C17.5004 21.8978 17.3423 22.2794 17.061 22.5607C16.7797 22.842 16.3982 23 16.0004 23Z" fill="#E8790A"/>
</svg>
