<svg width="32" height="32" viewBox="0 0 32 32" fill="none" xmlns="http://www.w3.org/2000/svg">
<path d="M29.6004 23.5112L18.6691 4.5275C18.396 4.06241 18.006 3.67677 17.5379 3.40883C17.0698 3.14088 16.5397 2.99992 16.0004 2.99992C15.461 2.99992 14.931 3.14088 14.4629 3.40883C13.9947 3.67677 13.6048 4.06241 13.3316 4.5275L2.40036 23.5112C2.13753 23.9611 1.99902 24.4727 1.99902 24.9937C1.99902 25.5148 2.13753 26.0264 2.40036 26.4762C2.67003 26.9442 3.05933 27.3319 3.52832 27.5997C3.9973 27.8674 4.52909 28.0056 5.06911 28H26.9316C27.4712 28.0052 28.0025 27.8668 28.471 27.599C28.9395 27.3313 29.3284 26.9438 29.5979 26.4762C29.8611 26.0266 30 25.5151 30.0005 24.9941C30.0009 24.4731 29.8628 23.9613 29.6004 23.5112ZM15.0004 13C15.0004 12.7348 15.1057 12.4804 15.2933 12.2929C15.4808 12.1054 15.7351 12 16.0004 12C16.2656 12 16.5199 12.1054 16.7075 12.2929C16.895 12.4804 17.0004 12.7348 17.0004 13V18C17.0004 18.2652 16.895 18.5196 16.7075 18.7071C16.5199 18.8946 16.2656 19 16.0004 19C15.7351 19 15.4808 18.8946 15.2933 18.7071C15.1057 18.5196 15.0004 18.2652 15.0004 18V13ZM16.0004 24C15.7037 24 15.4137 23.912 15.167 23.7472C14.9203 23.5824 14.7281 23.3481 14.6145 23.074C14.501 22.7999 14.4713 22.4983 14.5292 22.2074C14.5871 21.9164 14.7299 21.6491 14.9397 21.4393C15.1495 21.2296 15.4168 21.0867 15.7077 21.0288C15.9987 20.9709 16.3003 21.0006 16.5744 21.1142C16.8485 21.2277 17.0827 21.42 17.2476 21.6666C17.4124 21.9133 17.5004 22.2033 17.5004 22.5C17.5004 22.8978 17.3423 23.2794 17.061 23.5607C16.7797 23.842 16.3982 24 16.0004 24Z" fill="white"/>
</svg>
